<svg width="33" height="31" viewBox="0 0 33 31" fill="none" xmlns="http://www.w3.org/2000/svg">
<path d="M11.6875 7.74992H21.3125M13.75 21.9583H19.25M16.5 24.5416V19.3749M20.625 14.4325C23.8768 15.8837 26.125 18.9972 26.125 22.6041V25.1874C26.125 26.6142 24.8938 27.7708 23.375 27.7708H9.625C8.10622 27.7708 6.875 26.6142 6.875 25.1874V22.6041C6.875 18.9972 9.1232 15.8837 12.375 14.4325M16.5 15.4999C13.8421 15.4999 11.6875 13.4759 11.6875 10.9791V5.16659C11.6875 3.73985 12.9187 2.58325 14.4375 2.58325H18.5625C20.0813 2.58325 21.3125 3.73985 21.3125 5.16659V10.9791C21.3125 13.4759 19.1579 15.4999 16.5 15.4999Z" stroke="#4B5563" stroke-width="2.5" stroke-linecap="round" stroke-linejoin="round"/>
</svg>
