<svg width="16" height="16" viewBox="0 0 16 16" fill="none" xmlns="http://www.w3.org/2000/svg">
<path d="M8.66665 7.33325V3.99992C8.66665 3.82311 8.59641 3.65354 8.47139 3.52851C8.34636 3.40349 8.17679 3.33325 7.99998 3.33325C7.82317 3.33325 7.6536 3.40349 7.52858 3.52851C7.40355 3.65354 7.33331 3.82311 7.33331 3.99992V7.99992C7.33331 8.17673 7.40355 8.3463 7.52858 8.47132C7.6536 8.59635 7.82317 8.66659 7.99998 8.66659H11.3333C11.5101 8.66659 11.6797 8.59635 11.8047 8.47132C11.9297 8.3463 12 8.17673 12 7.99992C12 7.82311 11.9297 7.65354 11.8047 7.52851C11.6797 7.40349 11.5101 7.33325 11.3333 7.33325H8.66665ZM7.99998 14.6666C4.31798 14.6666 1.33331 11.6819 1.33331 7.99992C1.33331 4.31792 4.31798 1.33325 7.99998 1.33325C11.682 1.33325 14.6666 4.31792 14.6666 7.99992C14.6666 11.6819 11.682 14.6666 7.99998 14.6666Z" fill="#32B768"/>
</svg>
