<svg width="47" height="47" viewBox="0 0 47 47" fill="none" xmlns="http://www.w3.org/2000/svg">
<path d="M31.3333 7.83341H33.2916C35.4547 7.83341 37.2083 9.58697 37.2083 11.7501V37.2084C37.2083 39.3715 35.4547 41.1251 33.2916 41.1251H13.7083C11.5452 41.1251 9.79163 39.3715 9.79163 37.2084V11.7501C9.79163 9.58697 11.5452 7.83341 13.7083 7.83341H15.6666M31.3333 7.83341C31.3333 9.99653 29.5797 11.7501 27.4166 11.7501H19.5833C17.4202 11.7501 15.6666 9.99653 15.6666 7.83341M31.3333 7.83341C31.3333 5.6703 29.5797 3.91675 27.4166 3.91675H19.5833C17.4202 3.91675 15.6666 5.6703 15.6666 7.83341M15.6667 25.4584H18.6042L21.5417 30.3543L25.4584 20.5626L28.3959 26.4376H31.3334" stroke="#1F2937" stroke-width="1.5" stroke-linecap="round" stroke-linejoin="round"/>
</svg>
