<svg width="280" height="212" viewBox="0 0 280 212" fill="none" xmlns="http://www.w3.org/2000/svg">
<path d="M22.6275 192.341C22.6275 192.341 -3.27773 175.34 0.347937 137.576C4.36207 95.7586 20.8375 91.1884 33.3065 85.0491C47.4587 78.0796 59.5697 76.8761 75.8014 42.4323C97.2279 -3.04083 135.785 0.0440298 150.379 0.0440298C199.935 0.0440298 199.341 49.1809 223.265 73.6389C245.789 96.6573 295.009 146.556 239.261 190.757C210.233 213.768 69.0452 221.088 22.6275 192.341Z" fill="#B3FFD1"/>
<path d="M30.3891 41.769C29.993 40.2075 27.0072 39.5296 23.0007 39.8571C22.2161 39.918 21.4849 39.4839 21.1726 38.7679C19.5731 35.0813 17.5546 32.7733 15.9931 33.1618C14.4316 33.5579 13.7537 36.5437 14.0812 40.5502C14.1422 41.3348 13.708 42.066 12.992 42.3783C9.30543 43.9779 6.99749 45.9964 7.38596 47.5578C7.78204 49.1193 10.7679 49.7972 14.7744 49.4697C15.5589 49.4087 16.2902 49.8429 16.6025 50.5589C18.202 54.2455 20.2205 56.5534 21.782 56.165C23.3434 55.7689 24.0214 52.7831 23.6938 48.7765C23.6329 47.992 24.0671 47.2608 24.7831 46.9485C28.4697 45.3413 30.7852 43.3304 30.3891 41.769Z" fill="#32B768"/>
<path d="M279.981 140.835C280.24 139.251 277.765 137.431 273.964 136.143C273.225 135.892 272.723 135.199 272.723 134.414C272.715 130.4 271.793 127.475 270.201 127.209C268.617 126.95 266.797 129.425 265.509 133.226C265.258 133.965 264.565 134.468 263.78 134.468C259.766 134.475 256.841 135.397 256.575 136.989C256.316 138.573 258.791 140.394 262.592 141.681C263.331 141.932 263.834 142.625 263.834 143.41C263.841 147.424 264.763 150.349 266.355 150.616C267.939 150.875 269.76 148.399 271.047 144.598C271.298 143.859 271.991 143.357 272.776 143.357C276.798 143.349 279.722 142.427 279.981 140.835Z" fill="#EDB82C"/>
<path d="M13.2891 191.671C18.5086 191.671 22.7398 187.44 22.7398 182.22C22.7398 177.001 18.5086 172.77 13.2891 172.77C8.06964 172.77 3.83844 177.001 3.83844 182.22C3.83844 187.44 8.06964 191.671 13.2891 191.671Z" fill="#32B768"/>
<path d="M227 105.329C227 76.3154 208.574 45 178.806 45C157.903 45 145.233 57.4299 139 65.9606C132.767 57.4278 120.097 45 99.1941 45C69.4264 45 51 76.3154 51 105.329C51 139.619 78.44 168.244 108.093 194.072C109.063 194.92 110.22 195.329 111.367 195.329C112.939 195.329 114.495 194.558 115.541 193.083C117.351 190.533 116.952 186.837 114.649 184.832C87.101 160.838 61.61 134.601 61.61 105.329C61.61 85.7406 73.5545 56.7554 99.1941 56.7554C123.659 56.7554 133.847 78.1601 134.257 79.0506C135.154 81.029 136.984 82.2691 138.981 82.2794C138.989 82.2794 138.996 82.2794 139.006 82.2794C140.995 82.2794 142.822 81.0352 143.731 79.0732C144.153 78.1622 154.343 56.7574 178.808 56.7574C204.447 56.7574 216.392 85.7427 216.392 105.331C216.392 128.18 201.405 151.199 166.318 182.229C156.766 190.118 147.873 193.034 141.949 190.044C136.52 187.3 133.405 179.38 133.405 168.312V143.761C133.405 140.515 131.03 137.883 128.1 137.883H111.246V125.486H128.1C131.03 125.486 133.405 122.853 133.405 119.608V100.932H144.596V119.608C144.596 122.853 146.97 125.486 149.901 125.486H166.756V137.883H149.901C146.972 137.883 144.596 140.515 144.596 143.761V168.312C144.596 171.557 146.97 174.19 149.901 174.19C152.83 174.19 155.206 171.557 155.206 168.312V149.636H172.061C174.99 149.636 177.366 147.004 177.366 143.758V119.606C177.366 116.361 174.99 113.728 172.061 113.728H155.206V95.0528C155.206 91.8075 152.83 89.1751 149.901 89.1751H128.1C125.171 89.1751 122.795 91.8075 122.795 95.0528V113.728H105.941C103.012 113.728 100.636 116.361 100.636 119.606V143.758C100.636 147.004 103.012 149.636 105.941 149.636H122.795V168.312C122.795 184.182 128.173 196.001 137.547 200.738C140.542 202.251 143.774 203 147.189 203C154.833 203 163.4 199.243 172.294 191.952C172.358 191.903 172.426 191.87 172.487 191.814C172.604 191.711 172.721 191.607 172.838 191.502C174.288 190.292 175.745 188.995 177.21 187.598C203.647 163.715 227 137.192 227 105.329Z" fill="url(#paint0_linear_23_53)"/>
<defs>
<linearGradient id="paint0_linear_23_53" x1="51.0015" y1="123.999" x2="227.001" y2="123.999" gradientUnits="userSpaceOnUse">
<stop stop-color="#32B768"/>
<stop offset="0.9997" stop-color="#223A6A"/>
</linearGradient>
</defs>
</svg>
