<svg width="261" height="236" viewBox="0 0 261 236" fill="none" xmlns="http://www.w3.org/2000/svg">
<path d="M42.9151 39.806C55.4236 6.58347 80.0052 0.52084 93.7245 0.52955C133.358 0.538261 148.663 13.491 174.124 42.6283C198 69.9536 215.038 65.8335 228.749 76.3212C251.1 93.4289 263.801 152.487 220.5 188.602C159.116 239.812 119.682 242.922 66.6343 226.389C30.8595 215.239 0.87734 184.769 0.154353 151.033C-1.23936 85.8506 29.3874 75.7375 42.9151 39.806Z" fill="#B3FFD1"/>
<path d="M16.8367 215.998C23.7402 215.998 29.3366 210.402 29.3366 203.498C29.3366 196.595 23.7402 190.999 16.8367 190.999C9.93327 190.999 4.33691 196.595 4.33691 203.498C4.33691 210.402 9.93327 215.998 16.8367 215.998Z" fill="#0E7F3D"/>
<path d="M260.943 133.002C261.396 131.416 259.097 129.282 255.386 127.514C254.663 127.166 254.236 126.408 254.332 125.606C254.811 121.521 254.219 118.438 252.633 117.985C251.048 117.532 248.914 119.831 247.146 123.542C246.797 124.265 246.039 124.692 245.238 124.596C241.153 124.117 238.069 124.709 237.616 126.295C237.163 127.88 239.463 130.014 243.174 131.782C243.897 132.131 244.323 132.889 244.228 133.69C243.748 137.775 244.341 140.859 245.926 141.312C247.511 141.765 249.646 139.465 251.414 135.754C251.762 135.031 252.52 134.605 253.321 134.7C257.398 135.179 260.482 134.587 260.943 133.002Z" fill="#32B768"/>
<path d="M75.6237 9.30999C75.2753 7.69851 72.2352 6.90584 68.1238 7.1149C67.3224 7.15845 66.5907 6.68807 66.2946 5.93896C64.7702 2.11497 62.7842 -0.31531 61.1814 0.033117C59.5699 0.381544 58.7772 3.42157 58.9863 7.53301C59.0299 8.33439 58.5595 9.06609 57.8104 9.36225C53.9864 10.8866 51.5561 12.8727 51.9045 14.4754C52.2529 16.0869 55.293 16.8796 59.4044 16.6705C60.2058 16.627 60.9375 17.0973 61.2337 17.8465C62.758 21.6704 64.7441 24.1007 66.3468 23.7523C67.9583 23.4039 68.751 20.3638 68.5419 16.2524C68.4984 15.451 68.9687 14.7193 69.7178 14.4232C73.5418 12.9075 75.9721 10.9215 75.6237 9.30999Z" fill="#E06738"/>
<path d="M120.5 45.4062C80.4064 45.4062 49 59.5382 49 77.5812V170.531C49 188.574 80.4064 202.706 120.5 202.706C160.594 202.706 192 188.574 192 170.531V77.5812C192 59.5382 160.594 45.4062 120.5 45.4062ZM184.85 138.356C184.85 153.103 150.938 163.381 120.5 163.381C90.0624 163.381 56.15 153.103 56.15 138.356V120.353C67.6114 131.092 91.7927 138.356 120.5 138.356C149.207 138.356 173.389 131.092 184.85 120.353V138.356ZM184.85 106.181C184.85 120.928 150.938 131.206 120.5 131.206C90.0624 131.206 56.15 120.928 56.15 106.181V91.7525C67.6114 102.492 91.7927 109.756 120.5 109.756C149.207 109.756 173.389 102.492 184.85 91.7525V106.181ZM120.5 52.5562C150.938 52.5562 184.85 62.8344 184.85 77.5812C184.85 92.3281 150.938 102.606 120.5 102.606C90.0624 102.606 56.15 92.3281 56.15 77.5812C56.15 62.8344 90.066 52.5562 120.5 52.5562ZM120.5 195.556C90.0624 195.556 56.15 185.278 56.15 170.531V152.528C67.6114 163.267 91.7927 170.531 120.5 170.531C149.207 170.531 173.389 163.267 184.85 152.528V170.531C184.85 185.278 150.938 195.556 120.5 195.556Z" fill="#0E7F3D"/>
<path fill-rule="evenodd" clip-rule="evenodd" d="M120.205 32C124.222 49.1966 138.487 56.9152 138.487 69.8421C138.487 74.815 136.695 79.0781 133.107 82.632C129.506 86.1858 125.214 87.9711 120.214 87.9711C115.227 87.9711 110.944 86.1858 107.343 82.632C103.751 79.0785 101.955 74.8155 101.955 69.8421C101.955 56.8537 116.232 49.2657 120.205 32Z" fill="#FF2121"/>
<path d="M107.704 67.1634C107.56 66.2546 108.179 65.4005 109.086 65.2563C109.994 65.1122 110.846 65.732 110.99 66.6409C111.465 69.6028 112.468 72.1541 113.841 74.1671C115.209 76.1749 116.941 77.6341 118.867 78.4077C119.72 78.7503 120.135 79.7216 119.793 80.5764C119.451 81.4315 118.481 81.8465 117.627 81.5039C115.085 80.4825 112.831 78.6049 111.089 76.0481C109.452 73.6475 108.26 70.6338 107.704 67.1634Z" fill="#FF8787"/>
</svg>
