<svg width="280" height="273" viewBox="0 0 280 273" fill="none" xmlns="http://www.w3.org/2000/svg">
<path d="M9.61754 155.944C9.61754 155.944 8.33008 86.1788 95.0202 97.8555C168.424 107.735 142.398 111.535 188.166 108.879C198.859 108.263 240.675 93.7516 257.537 106.17C278.727 121.772 299.613 175.998 246.487 232.075C183.91 298.121 47.5713 232.674 47.5713 232.674C47.5713 232.674 7.49857 207.667 9.61754 155.944Z" fill="#B3FFD1"/>
<path d="M142.281 272.524C200.578 272.524 247.837 260.383 247.837 245.406C247.837 230.429 200.578 218.289 142.281 218.289C83.9849 218.289 36.7262 230.429 36.7262 245.406C36.7262 260.383 83.9849 272.524 142.281 272.524Z" fill="#0E7F3D"/>
<path d="M142.281 264.495C206.088 264.495 257.814 252.354 257.814 237.377C257.814 222.401 206.088 210.26 142.281 210.26C78.4739 210.26 26.7479 222.401 26.7479 237.377C26.7479 252.354 78.4739 264.495 142.281 264.495Z" fill="#32B768"/>
<path d="M101.828 26.7156C112.914 21.6414 120.105 13.6042 117.889 8.76401C115.674 3.92377 104.891 4.1134 93.8054 9.18756C82.7195 14.2617 75.5286 22.2989 77.7441 27.1391C79.9595 31.9794 90.7424 31.7897 101.828 26.7156Z" fill="#0E7F3D"/>
<path d="M100.676 24.1881C106.599 21.4774 110.44 17.1833 109.256 14.5971C108.073 12.0108 102.312 12.1118 96.3896 14.8225C90.4673 17.5332 86.6259 21.8273 87.8097 24.4135C88.9934 26.9998 94.754 26.8989 100.676 24.1881Z" fill="black"/>
<path d="M109.257 14.5952L87.8024 24.4153L92.878 35.5045L114.333 25.6843L109.257 14.5952Z" fill="black"/>
<path d="M225.905 65.8831L44.0483 145.135C42.3406 137.776 41.4376 130.114 41.4376 122.246C41.4376 66.5537 86.5977 21.4026 142.281 21.4026C177.106 21.4026 207.799 39.0518 225.905 65.8831Z" fill="#32B768"/>
<path d="M25.1655 161.622C24.2088 159.932 20.5074 160.093 15.9565 161.756C15.0713 162.077 14.0789 161.8 13.4799 161.067C10.44 157.285 7.35541 155.238 5.6656 156.185C3.97578 157.142 4.13674 160.844 5.79973 165.395C6.1216 166.28 5.84442 167.272 5.11127 167.871C1.33825 170.911 -0.718161 173.996 0.229565 175.685C1.18623 177.375 4.88772 177.214 9.4386 175.551C10.3237 175.229 11.3162 175.507 11.9152 176.24C14.9551 180.013 18.0397 182.069 19.7295 181.121C21.4193 180.165 21.2584 176.463 19.5954 171.912C19.2735 171.027 19.5507 170.035 20.2838 169.436C24.0658 166.396 26.1222 163.32 25.1655 161.622Z" fill="#EDB82C"/>
<path d="M275.616 86.8406C276.098 84.963 273.318 82.5132 268.883 80.5462C268.016 80.1618 267.497 79.2766 267.578 78.3379C268.007 73.5098 267.202 69.8888 265.325 69.406C263.447 68.9232 260.997 71.7038 259.03 76.1384C258.646 77.0057 257.761 77.5242 256.822 77.4438C251.994 77.0146 248.373 77.8193 247.89 79.6969C247.407 81.5744 250.188 84.0242 254.623 85.9912C255.49 86.3757 256.008 87.2608 255.928 88.1996C255.499 93.0276 256.303 96.6486 258.181 97.1315C260.059 97.6143 262.508 94.8337 264.475 90.399C264.86 89.5318 265.745 89.0132 266.684 89.0937C271.512 89.5228 275.133 88.7182 275.616 86.8406Z" fill="#E06738"/>
<path d="M267.98 212.844C273.595 212.844 278.146 208.292 278.146 202.678C278.146 197.063 273.595 192.512 267.98 192.512C262.366 192.512 257.815 197.063 257.815 202.678C257.815 208.292 262.366 212.844 267.98 212.844Z" fill="#32B768"/>
<path d="M131.327 204.457H124.972V198.102C124.972 196.836 123.946 195.808 122.679 195.808C121.411 195.808 120.385 196.836 120.385 198.102V204.457H114.031C112.763 204.457 111.737 205.484 111.737 206.75C111.737 208.016 112.763 209.044 114.031 209.044H120.385V215.397C120.385 216.663 121.411 217.69 122.679 217.69C123.946 217.69 124.972 216.663 124.972 215.397V209.044H131.327C132.595 209.044 133.621 208.016 133.621 206.75C133.621 205.484 132.595 204.457 131.327 204.457Z" fill="black"/>
<path d="M202.586 219.778L179.545 196.738V182.815C179.545 180.735 178.984 178.691 177.92 176.905L161.697 149.617C161.056 148.54 160.717 147.307 160.717 146.052V138.598C164.171 137.621 166.723 134.474 166.723 130.711V120.231C166.723 115.693 163.032 112 158.493 112H116.053C111.515 112 107.823 115.693 107.823 120.231V130.711C107.823 134.474 110.375 137.619 113.829 138.598V146.052C113.829 146.469 113.778 146.882 113.703 147.29C113.696 147.327 113.688 147.362 113.68 147.399C113.527 148.177 113.257 148.931 112.849 149.617L96.6254 176.903C95.5627 178.691 95 180.733 95 182.813V240.684C95 245.464 98.8884 249.352 103.668 249.352H170.877C174.093 249.352 176.899 247.589 178.395 244.982C181.732 248.057 185.973 249.614 190.224 249.614C194.701 249.614 199.178 247.91 202.586 244.502C205.889 241.199 207.709 236.808 207.709 232.14C207.709 227.47 205.889 223.079 202.586 219.778ZM112.411 130.711V120.231C112.411 118.222 114.046 116.587 116.053 116.587H158.493C160.503 116.587 162.136 118.222 162.136 120.229V130.709C162.136 132.719 160.503 134.352 158.493 134.352H116.053C114.046 134.355 112.411 132.72 112.411 130.711ZM116.792 151.962C117.145 151.368 117.42 150.74 117.66 150.099H141.084C142.351 150.099 143.377 149.073 143.377 147.806C143.377 146.538 142.351 145.512 141.084 145.512H118.417V138.942H156.13V146.052C156.13 148.131 156.691 150.176 157.755 151.962L173.98 179.247C174.22 179.651 174.402 180.081 174.555 180.519H99.9923C100.145 180.081 100.329 179.651 100.567 179.247L116.792 151.962ZM170.877 244.767H103.67C101.419 244.767 99.5887 242.936 99.5887 240.686V233.684H143.934C145.201 233.684 146.227 232.657 146.227 231.391C146.227 230.125 145.201 229.097 143.934 229.097H99.5887V185.108H174.96V192.625C168.168 188.068 158.863 188.787 152.868 194.782C149.565 198.084 147.747 202.475 147.747 207.145C147.747 211.816 149.567 216.206 152.868 219.507L174.874 241.514C174.489 243.368 172.844 244.767 170.877 244.767ZM199.343 241.259C194.316 246.287 186.134 246.284 181.105 241.259L170.229 230.383L181.38 219.232C182.276 218.336 182.276 216.885 181.38 215.989C180.484 215.093 179.033 215.093 178.137 215.989L166.986 227.14L156.11 216.264C153.674 213.828 152.333 210.59 152.333 207.145C152.333 203.701 153.674 200.463 156.11 198.027C158.625 195.513 161.926 194.256 165.227 194.256C168.529 194.256 171.831 195.513 174.345 198.027L199.342 223.024C201.778 225.459 203.12 228.698 203.12 232.141C203.12 235.585 201.778 238.822 199.343 241.259Z" fill="black"/>
</svg>
