<svg width="17" height="19" viewBox="0 0 17 19" fill="none" xmlns="http://www.w3.org/2000/svg">
<path d="M6.52082 2.37482H7.31249C8.18694 2.37482 8.89582 3.0837 8.89582 3.95815V7.12493C8.89582 9.31106 7.12362 11.0833 4.93749 11.0833M3.35416 2.37482H2.56249C1.68804 2.37482 0.979156 3.0837 0.979156 3.95815V7.12493C0.979156 9.31106 2.75136 11.0833 4.93749 11.0833M4.93749 11.0833V13.0624C4.93749 15.4672 6.88692 17.4166 9.29166 17.4166C11.6964 17.4166 13.6458 15.4672 13.6458 13.0624V12.2708M13.6458 12.2708C14.7389 12.2708 15.625 11.3847 15.625 10.2916C15.625 9.19854 14.7389 8.31243 13.6458 8.31243C12.5528 8.31243 11.6667 9.19854 11.6667 10.2916C11.6667 11.3847 12.5528 12.2708 13.6458 12.2708ZM6.52082 1.58325L6.5208 3.16643M3.35416 1.58327V3.1666" stroke="#32B768" stroke-width="1.5" stroke-linecap="round" stroke-linejoin="round"/>
</svg>
