<svg width="25" height="25" viewBox="0 0 25 25" fill="none" xmlns="http://www.w3.org/2000/svg">
<path d="M22.5 7.0649L14.5005 0.842898C13.7985 0.29676 12.9345 0.000244141 12.045 0.000244141C11.1556 0.000244141 10.2916 0.29676 9.58954 0.842898L1.58854 7.0649C1.10771 7.43883 0.718684 7.91769 0.451177 8.46492C0.18367 9.01215 0.0447568 9.61328 0.0450444 10.2224V21.0224C0.0450444 21.818 0.361115 22.5811 0.923724 23.1437C1.48633 23.7063 2.24939 24.0224 3.04504 24.0224H21.045C21.8407 24.0224 22.6038 23.7063 23.1664 23.1437C23.729 22.5811 24.045 21.818 24.045 21.0224V10.2224C24.045 8.9879 23.475 7.8224 22.5 7.0649Z" fill="#32B768"/>
</svg>
